# xmcd
#
# Track frame offsets: 
#        150
#        674
#        14997
#        32483
#        47927
#        66786
#        81389
#        99705
#        115443
#        133160
#        151846
#        173557
#        191919
#        205151
#        220136
#        235766
#        251055
#        264505
#        283180
#        299173
#        313944
#
# Disc length: 4423 seconds
#
# Revision: 0
# Processed by: cddbd v1.5.2PL0 Copyright (c) Steve Scherf et al.
# Submitted via: ExactAudioCopy v0.99pb4
#
DISCID=48114515
DTITLE=Various Artist - prevue promo 1048A-3
DYEAR=2000
DGENRE=pop
TTITLE0=blank - data
TTITLE1=The Churchills - Beautiful (Coulda Woulda)
TTITLE2=Soleil Moon - Corrupt 
TTITLE3=98degrees - Give Me Just One Night (una Noche)
TTITLE4=B.B. King And Eric Clapton - Come Rain Or Come Shine 
TTITLE5=John Oszajca - Where's Bob Dvlan When You Need Him 
TTITLE6=No Doubt - Bathwater 
TTITLE7=Youth Asylum - Jasmin 
TTITLE8=Ronan Keating - Life Is A RoIIercoaster 
TTITLE9=North MiSSissippi Ailstars - Shake'Em On Down 
TTITLE10=Counting Crows - All My Friends 
TTITLE11=Karissa Noel - Corrupt 
TTITLE12=Peter Searcy - Invent 
TTITLE13=2 Skinnee J's - StOCkholm Love 
TTITLE14=Harvev Danger - Sad Sweetheart Of The Rodeo
TTITLE15=Good Charlotte - Little Things 
TTITLE16=Zebrahead - Plavmate Of The Year 
TTITLE17=Veruca Salt - 0nIv You Know 
TTITLE18=Rage Against The Machine - Testi(y 
TTITLE19=Halford - Resurrection 
TTITLE20=Nickelback - Breathe 
EXTD=
EXTT0=
EXTT1=
EXTT2=
EXTT3=
EXTT4=
EXTT5=
EXTT6=
EXTT7=
EXTT8=
EXTT9=
EXTT10=
EXTT11=
EXTT12=
EXTT13=
EXTT14=
EXTT15=
EXTT16=
EXTT17=
EXTT18=
EXTT19=
EXTT20=
PLAYORDER=
